<?xml version="1.0" standalone="no"?>
<!DOCTYPE svg PUBLIC "-//W3C//DTD SVG 20010904//EN"
 "http://www.w3.org/TR/2001/REC-SVG-20010904/DTD/svg10.dtd">
<svg version="1.0" xmlns="http://www.w3.org/2000/svg"
 width="3870.000000pt" height="2580.000000pt" viewBox="0 0 3870.000000 2580.000000"
 preserveAspectRatio="xMidYMid meet">

<g transform="translate(0.000000,2580.000000) scale(0.100000,-0.100000)"
fill="#000000" stroke="none">
<path d="M0 12900 l0 -12900 19350 0 19350 0 0 12900 0 12900 -19350 0 -19350
0 0 -12900z m11610 11630 c0 -5 -20 -10 -45 -10 -25 0 -45 5 -45 10 0 6 20 10
45 10 25 0 45 -4 45 -10z m721 -180 c95 0 149 -4 149 -10 0 -7 -56 -10 -162
-8 -128 2 -162 6 -166 17 -3 10 0 12 12 8 10 -4 85 -7 167 -7z m-491 -65 c0
-13 -24 -15 -160 -15 l-160 0 0 -25 0 -25 160 0 c100 0 160 -4 160 -10 0 -6
114 -10 323 -10 l323 0 31 -32 c18 -19 33 -46 35 -63 3 -26 8 -31 38 -34 33
-4 33 -4 10 -11 -24 -8 -24 -8 5 -9 24 -1 47 -17 105 -76 67 -67 79 -75 115
-76 l40 -2 -40 -7 c-26 -5 13 -8 108 -9 l147 -1 1 -47 c0 -27 0 -69 -1 -95 -1
-38 2 -48 14 -48 9 0 16 -7 16 -15 0 -11 11 -15 40 -15 22 0 40 -4 40 -10 0
-5 10 -10 23 -10 13 0 28 -5 34 -11 6 -6 16 -10 22 -8 16 6 -10 51 -37 65 -12
6 -30 18 -40 27 -22 20 -58 22 -66 5 -3 -7 -4 -2 -3 12 2 25 3 25 92 26 59 0
68 -1 26 -3 -62 -4 -63 -4 -46 -24 10 -10 23 -19 30 -19 13 0 65 -52 65 -66 0
-14 59 -64 76 -64 10 0 14 -12 14 -40 l0 -40 58 0 c31 -1 84 -7 117 -15 79
-19 115 -19 115 0 0 9 9 15 25 15 20 0 25 -5 25 -25 l0 -25 -135 0 -135 0 0
-29 c0 -25 4 -29 38 -35 20 -3 88 -6 150 -6 l112 0 0 -35 c0 -35 0 -35 -47
-36 -42 0 -45 -2 -23 -10 13 -6 38 -9 55 -7 29 3 30 5 29 51 l0 47 48 0 c26 0
48 -4 48 -8 0 -5 15 -14 33 -21 27 -11 36 -22 46 -57 l13 -44 64 0 c36 0 64
-4 64 -10 0 -6 -28 -10 -65 -10 -62 0 -65 -1 -65 -24 0 -29 20 -36 118 -36 69
0 72 -1 72 -24 0 -17 24 -44 93 -102 50 -43 98 -86 105 -96 10 -14 27 -18 83
-18 56 0 69 -3 69 -16 0 -13 -10 -15 -47 -14 -109 5 -306 -1 -297 -9 14 -13
97 -31 178 -38 l74 -6 5 29 c3 20 4 14 6 -18 l1 -48 153 -2 152 -2 -145 -6
-145 -5 33 -23 c17 -13 32 -32 32 -42 0 -21 19 -30 64 -30 21 0 40 -8 52 -21
10 -11 28 -26 39 -31 29 -16 85 -27 85 -17 0 5 7 9 15 9 8 0 15 -6 15 -14 0
-8 7 -16 15 -20 8 -3 15 -11 15 -19 0 -16 76 -35 177 -44 70 -6 73 -5 73 16 0
17 6 21 35 21 31 0 35 -3 35 -25 0 -21 5 -25 29 -25 16 0 31 -6 35 -15 5 -13
-21 -15 -194 -15 -110 0 -200 -4 -200 -8 0 -4 5 -13 12 -20 15 -15 248 -17
248 -2 0 6 38 10 95 10 57 0 95 -4 95 -10 0 -5 6 -10 13 -10 18 0 49 -34 40
-43 -3 -4 -27 -7 -51 -7 l-46 0 44 -37 c25 -21 53 -48 64 -60 16 -18 30 -23
72 -23 46 0 53 -3 56 -22 4 -29 70 -47 211 -55 80 -4 107 -9 107 -19 0 -8 -10
-14 -24 -14 -29 0 -49 -22 -40 -44 5 -14 -6 -16 -97 -16 l-104 -1 33 -29 c18
-17 41 -30 52 -30 10 0 22 -4 25 -10 3 -5 26 -10 50 -10 24 0 47 -4 50 -10 3
-5 40 -10 81 -10 72 0 74 1 74 25 0 14 4 25 8 25 5 0 19 -11 32 -25 18 -19 33
-25 67 -25 42 0 44 1 41 28 -2 20 -9 28 -28 30 -14 2 -33 11 -43 20 -9 8 -27
20 -39 26 -13 6 -24 19 -26 29 -3 15 6 17 67 17 80 0 79 1 80 -97 l1 -63 -35
0 c-32 0 -35 -3 -35 -29 0 -26 4 -30 32 -33 17 -2 33 -9 36 -15 3 -10 -19 -13
-87 -13 -50 0 -91 -4 -91 -8 0 -10 197 -21 394 -23 67 -1 109 -4 94 -6 -20 -3
-28 -10 -28 -24 0 -14 -9 -21 -30 -26 -18 -3 -43 -21 -62 -44 -17 -20 -39 -40
-50 -42 -10 -3 -18 -14 -18 -26 0 -12 -6 -21 -15 -21 -9 0 -15 -9 -15 -25 0
-34 10 -32 50 10 35 36 82 65 105 65 7 0 26 7 41 15 33 17 149 21 139 5 -3 -5
-28 -10 -56 -10 -27 0 -49 -4 -49 -10 0 -6 40 -10 99 -10 56 0 103 4 106 10 3
6 17 10 30 10 13 0 26 4 30 9 8 14 196 1 220 -15 11 -8 46 -14 82 -14 35 0 63
-4 63 -10 0 -5 -24 -10 -52 -10 l-53 -1 23 -18 c14 -12 22 -30 22 -50 l0 -31
-95 0 c-86 0 -95 -2 -95 -18 0 -18 16 -19 228 -26 273 -8 301 -11 295 -37 -4
-13 2 -20 21 -25 19 -4 26 -13 26 -30 l0 -24 -150 0 c-125 0 -152 -3 -156 -15
-5 -12 -28 -15 -113 -17 -58 -1 -87 -3 -65 -5 25 -3 49 -12 59 -24 13 -13 31
-19 61 -19 32 0 44 -4 47 -17 3 -10 5 1 6 24 0 23 5 45 11 48 5 3 28 1 50 -6
28 -9 40 -18 40 -31 0 -16 10 -18 104 -18 l105 0 3 28 c3 25 6 27 53 28 l50 2
-45 -7 c-40 -5 -45 -9 -50 -36 l-5 -30 -93 -3 -92 -3 0 -44 0 -45 38 0 c20 0
47 -3 60 -6 20 -6 22 -3 22 30 l0 36 55 0 c30 0 55 -4 55 -10 0 -5 7 -10 15
-10 9 0 15 -9 15 -24 0 -32 14 -36 141 -36 l109 0 0 -42 0 -43 157 3 c126 2
159 6 168 18 9 13 18 14 60 3 27 -7 43 -14 35 -16 -8 -3 -24 -8 -35 -13 -11
-5 -29 -10 -40 -12 -13 -2 -20 -11 -21 -28 -1 -14 -4 -34 -8 -45 -5 -15 -4
-14 5 3 12 22 39 31 39 12 0 -18 56 -11 75 10 10 11 27 20 38 20 12 0 30 9 42
20 18 17 30 19 68 14 63 -9 72 -34 12 -34 -25 0 -45 -4 -45 -10 0 -5 -9 -10
-19 -10 -10 0 -21 -7 -25 -15 -4 -11 -23 -15 -68 -17 -35 0 -49 -3 -31 -5 23
-3 33 -10 37 -29 4 -13 13 -24 21 -24 8 0 15 -4 15 -10 0 -6 33 -10 80 -10
l80 0 0 55 0 55 35 0 c42 0 55 -23 55 -95 0 -43 1 -45 38 -54 20 -6 70 -13
110 -17 l72 -7 0 -43 c0 -32 -4 -44 -15 -44 -8 0 -15 -4 -15 -10 0 -5 -9 -10
-20 -10 -11 0 -20 -4 -20 -10 0 -5 -11 -12 -25 -16 -14 -3 -25 -9 -25 -12 0
-13 44 -52 59 -52 8 0 25 -10 38 -22 l23 -21 0 -414 c0 -269 3 -413 10 -413 7
0 10 140 10 400 0 393 0 400 20 400 20 0 20 -7 20 -474 l0 -475 -22 -3 c-21
-3 -23 -9 -25 -60 -2 -52 0 -58 17 -58 19 0 20 -8 20 -137 0 -117 4 -148 25
-217 13 -45 28 -99 32 -121 6 -29 9 -3 11 95 2 86 -1 136 -8 138 -5 2 -10 10
-10 18 0 16 48 31 60 18 14 -15 25 -648 11 -640 -7 5 -11 58 -11 167 l0 160
-22 -3 -23 -3 -1 -345 c-1 -190 1 -333 3 -317 7 46 33 34 33 -16 0 -23 9 -60
20 -82 l20 -39 0 62 c0 59 1 62 25 62 l25 0 0 180 c0 152 2 180 15 180 12 0
15 -30 17 -187 l3 -188 30 -6 c23 -5 25 -7 8 -8 -16 -1 -23 -7 -23 -21 0 -13
-9 -22 -27 -26 -16 -4 -36 -15 -46 -26 -18 -18 -17 -19 2 -45 12 -14 21 -20
21 -13 0 10 3 10 15 0 8 -7 15 -22 15 -34 0 -27 27 -66 46 -66 12 0 14 -29 14
-170 0 -163 -1 -170 -20 -170 -15 0 -20 -7 -20 -24 0 -14 -7 -31 -15 -40 -8
-8 -15 -21 -15 -30 0 -8 -9 -20 -20 -26 -11 -6 -20 -20 -20 -30 0 -11 -4 -20
-10 -20 -6 0 -10 -32 -10 -76 l0 -76 68 4 67 3 3 -157 c2 -150 4 -158 22 -158
18 0 20 -8 22 -87 1 -49 0 -123 -1 -165 -3 -74 -2 -78 18 -78 20 0 21 -4 21
-160 0 -145 -2 -160 -17 -161 -17 -1 -17 -2 0 -6 9 -2 17 -10 17 -16 0 -7 29
-48 65 -92 59 -72 63 -80 45 -87 -11 -4 -20 -16 -20 -28 0 -11 -4 -20 -10 -20
-5 0 -10 -16 -10 -35 0 -19 4 -35 9 -35 5 0 11 -35 14 -77 2 -43 8 -89 12
-103 4 -14 10 -125 12 -247 l5 -223 24 0 c24 0 24 0 24 -110 0 -81 4 -119 16
-141 8 -17 13 -37 10 -45 -3 -7 -1 -16 4 -19 6 -4 10 -72 10 -157 0 -141 -1
-150 -20 -155 -19 -5 -20 -14 -20 -188 0 -158 2 -184 16 -189 28 -11 34 -7 34
24 0 28 3 30 35 30 l35 0 0 -160 c0 -100 4 -160 10 -160 6 0 10 -31 10 -72 0
-49 -3 -68 -10 -58 -6 10 -10 -4 -12 -45 -3 -53 -5 -60 -27 -65 -27 -6 -25 5
-29 -173 -2 -98 -2 -98 -30 -108 -34 -12 -55 -71 -50 -145 3 -47 4 -49 41 -58
34 -9 37 -12 37 -47 0 -33 -3 -37 -32 -43 -88 -18 -90 -18 -77 -27 11 -7 11
-9 -2 -9 -9 0 -17 -6 -19 -12 -1 -7 -5 -161 -9 -341 l-6 -329 -19 84 c-10 45
-23 94 -29 108 -6 14 -14 104 -17 200 l-6 175 -2 -157 c-2 -126 -5 -158 -16
-158 -9 0 -15 -18 -19 -51 -4 -28 -10 -56 -15 -63 -5 -6 -12 -20 -16 -31 -6
-17 -4 -16 20 5 14 14 30 34 34 45 5 11 9 -73 9 -197 l1 -218 -50 0 -50 0 0
-125 0 -125 -35 0 -35 0 0 -100 c0 -93 -1 -100 -20 -100 -19 0 -20 -6 -19
-147 0 -82 3 -141 6 -133 12 31 47 60 75 60 27 0 28 -2 28 -50 0 -43 -3 -50
-20 -50 -15 0 -20 -7 -20 -25 0 -14 -4 -25 -10 -25 -5 0 -10 -11 -10 -25 0
-14 -4 -25 -10 -25 -5 0 -10 -6 -10 -13 0 -7 -9 -23 -20 -35 -11 -12 -20 -30
-20 -41 0 -11 -4 -23 -10 -26 -5 -3 -11 -16 -12 -28 -1 -12 -4 7 -7 43 l-6 65
-27 -55 c-14 -30 -28 -69 -30 -87 -4 -29 -2 -32 26 -36 28 -3 28 -4 -6 -5 -30
-2 -38 -6 -38 -21 0 -10 -7 -24 -15 -31 -8 -7 -15 -21 -15 -32 0 -11 -5 -29
-11 -40 -10 -18 -9 -20 6 -15 9 4 26 7 36 7 11 0 17 5 14 10 -3 6 -1 10 4 10
7 0 11 -38 11 -105 0 -98 -1 -105 -20 -105 -16 0 -20 -7 -20 -30 0 -20 -5 -30
-15 -30 -27 0 -65 -47 -65 -80 0 -28 -2 -30 -40 -30 -49 0 -52 -15 -10 -60 21
-23 30 -42 30 -66 0 -19 5 -34 10 -34 14 0 12 -33 -3 -49 -9 -11 -9 -13 1 -7
9 6 12 -15 12 -88 l0 -96 -42 0 c-38 1 -41 2 -25 14 14 11 17 29 17 94 0 63 3
81 16 86 21 8 14 50 -8 54 -15 3 -18 -4 -18 -47 0 -39 -4 -51 -15 -51 -9 0
-36 -20 -60 -45 -34 -33 -45 -52 -45 -75 0 -33 0 -33 -97 -30 -41 1 -53 -2
-53 -13 0 -33 13 -47 41 -47 19 0 29 -5 29 -15 0 -8 -4 -15 -10 -15 -5 0 -10
-9 -10 -20 0 -13 -7 -20 -20 -20 -18 0 -20 -7 -20 -80 0 -47 -4 -80 -10 -80
-5 0 -10 -22 -10 -49 l0 -50 -37 -4 c-31 -3 -29 -4 15 -5 l52 -2 0 47 c0 39 5
52 32 80 18 18 36 33 42 33 5 0 20 10 33 22 l23 21 0 -157 c0 -102 -3 -155
-10 -151 -5 3 -10 15 -10 26 0 10 -7 19 -15 19 -8 0 -15 -6 -15 -14 0 -7 -7
-27 -15 -42 -8 -16 -15 -36 -15 -44 0 -9 -4 -20 -10 -26 -5 -5 -13 -38 -16
-72 -7 -59 -6 -62 15 -62 12 0 21 -6 21 -15 0 -8 -9 -15 -19 -15 -16 0 -20
-10 -26 -72 -4 -39 -14 -78 -21 -86 -9 -8 -14 -35 -14 -68 l0 -54 -59 0 -58 0
-6 -51 c-4 -29 -13 -59 -22 -69 -8 -9 -15 -24 -15 -33 0 -9 -4 -17 -10 -17 -5
0 -10 -7 -10 -15 0 -8 -4 -15 -10 -15 -5 0 -10 -9 -10 -21 0 -11 -7 -27 -15
-35 -11 -11 -15 -38 -15 -100 l0 -84 -40 0 -40 0 0 -100 0 -100 -80 0 -80 0 0
-130 c0 -71 3 -130 6 -130 4 0 15 10 25 22 11 11 19 17 19 11 0 -5 -9 -18 -21
-29 -13 -11 -19 -27 -16 -41 2 -12 1 -22 -2 -21 -51 6 -71 -4 -94 -45 -14 -23
-32 -65 -41 -93 -15 -46 -21 -52 -59 -65 l-42 -14 48 -3 c39 -3 52 1 66 17 10
12 24 21 31 21 6 0 25 14 40 30 39 41 50 38 50 -15 0 -25 5 -45 10 -45 6 0 10
6 11 13 0 9 2 9 6 0 4 -12 -18 -43 -31 -43 -3 0 -6 26 -6 57 l0 57 -33 -32
c-18 -18 -38 -32 -43 -32 -6 0 -19 -9 -29 -20 -13 -14 -31 -20 -60 -20 -50 0
-65 -13 -65 -58 l0 -35 58 5 c31 3 47 4 34 1 -22 -4 -22 -7 -18 -96 2 -51 1
-66 -1 -34 -3 48 -7 57 -23 57 -13 0 -20 -7 -20 -20 0 -13 -9 -22 -27 -26 -52
-12 -63 -35 -63 -124 0 -79 0 -80 25 -80 14 0 25 -4 25 -10 0 -5 -4 -10 -10
-10 -5 0 -10 -9 -10 -20 0 -11 -4 -20 -10 -20 -5 0 -10 -9 -10 -20 0 -13 -7
-20 -20 -20 -11 0 -20 -7 -20 -15 0 -20 -45 -65 -65 -65 -8 0 -15 -9 -15 -20
0 -16 -7 -20 -30 -20 -16 0 -30 -4 -30 -10 0 -5 -4 -10 -10 -10 -5 0 -10 11
-10 25 0 22 -4 25 -37 25 -53 -1 -69 -17 -78 -78 l-7 -52 81 0 81 0 0 -30 c0
-29 -1 -30 -50 -30 -43 0 -50 -3 -50 -20 0 -12 -7 -20 -16 -20 -31 0 -44 -27
-44 -89 0 -58 -1 -61 -25 -61 -21 0 -25 -5 -25 -30 0 -28 -2 -30 -40 -30 -33
0 -40 3 -40 20 0 11 6 20 14 20 8 0 18 5 21 10 4 6 -13 10 -44 10 l-51 0 0
-35 c0 -31 3 -35 25 -35 14 0 25 -4 25 -10 0 -5 -4 -10 -10 -10 -5 0 -10 -8
-10 -19 0 -10 -9 -21 -20 -24 -11 -3 -20 -11 -20 -19 0 -13 -52 -38 -80 -38
-8 0 -30 -17 -49 -38 -20 -22 -44 -42 -53 -45 -10 -4 -18 -13 -18 -22 0 -12
16 -15 88 -15 90 0 135 13 162 45 7 8 17 15 23 15 16 0 107 91 107 107 0 6 5
15 10 18 6 4 10 -46 10 -143 l0 -149 -42 -28 c-24 -16 -56 -43 -72 -62 -35
-40 -75 -45 -77 -10 l-2 22 -4 -23 c-3 -14 -12 -22 -24 -22 -10 0 -19 -4 -19
-10 0 -5 -9 -10 -20 -10 -11 0 -20 -4 -20 -9 0 -5 -13 -14 -30 -20 -16 -5 -30
-17 -30 -25 0 -13 -16 -16 -87 -18 l-88 -2 78 -3 c42 -2 77 -8 77 -13 0 -6 -4
-10 -10 -10 -5 0 -10 -11 -10 -25 0 -23 -3 -25 -50 -25 -47 0 -50 -2 -50 -25
0 -35 -28 -33 -32 3 -3 27 -4 27 -76 27 -66 0 -72 2 -72 20 0 11 -9 27 -20 35
-11 8 -20 23 -20 33 0 11 -11 22 -30 28 -16 6 -30 15 -30 20 0 5 -18 9 -39 9
l-40 0 -3 -52 c-5 -83 -22 -77 -157 56 -131 130 -160 144 -163 79 l-1 -38 -4
39 c-3 27 -10 40 -24 43 -15 4 -19 14 -19 49 0 38 -5 48 -42 83 -33 31 -51 41
-77 41 l-34 0 19 -23 c29 -32 47 -73 41 -90 -8 -20 -53 -27 -178 -27 -96 0
-109 -2 -109 -17 0 -24 40 -63 65 -63 12 0 30 -9 40 -20 10 -11 28 -20 40 -20
12 0 30 -9 40 -20 10 -11 23 -20 30 -20 14 0 57 -46 74 -81 7 -14 11 -37 8
-50 -4 -22 -4 -22 -6 4 0 15 -5 27 -9 27 -5 0 -16 16 -25 35 -10 21 -26 37
-42 41 -14 3 -25 10 -25 15 0 5 -7 9 -15 9 -8 0 -15 5 -15 10 0 6 -13 10 -28
10 -16 0 -34 8 -42 20 -8 11 -25 20 -38 20 -35 0 -72 43 -72 85 0 33 2 35 35
35 31 0 35 3 35 25 0 16 -6 25 -15 25 -9 0 -19 10 -24 23 -11 26 -118 131
-143 140 -10 4 -18 14 -18 23 0 13 -7 16 -35 11 -33 -5 -35 -4 -35 24 0 25 -5
30 -30 36 -21 4 -30 11 -30 25 0 21 -22 48 -39 48 -6 0 -11 9 -11 20 0 11 -8
23 -17 27 -10 3 -34 23 -53 43 -19 21 -47 40 -62 44 -19 4 -28 13 -28 26 0 13
-7 20 -20 20 -11 0 -20 4 -20 10 0 5 -11 12 -25 16 -22 5 -25 12 -25 48 0 40
-5 46 -135 176 l-135 135 0 67 0 68 -75 0 -75 0 0 -58 c0 -46 4 -60 20 -72 11
-8 20 -25 20 -38 0 -27 21 -52 44 -52 9 0 16 -8 16 -20 0 -18 7 -20 58 -20 46
0 60 -4 72 -20 8 -11 20 -20 28 -20 18 0 62 -46 62 -65 0 -8 5 -15 10 -15 6 0
10 -18 10 -40 0 -33 -3 -40 -20 -40 -15 0 -20 -7 -20 -28 0 -16 8 -34 20 -42
11 -8 20 -22 20 -32 0 -11 7 -18 18 -18 10 0 24 -9 32 -20 10 -14 26 -20 52
-20 21 0 38 -4 38 -10 0 -5 11 -10 25 -10 16 0 39 -14 62 -36 31 -32 35 -40
30 -75 -3 -21 -1 -39 4 -39 5 0 9 -13 9 -28 0 -16 8 -34 20 -42 11 -8 20 -22
20 -32 0 -10 7 -18 16 -18 9 0 24 -9 33 -19 9 -11 30 -21 46 -24 17 -2 -50 -5
-147 -6 -113 0 -178 3 -178 9 0 6 -9 10 -19 10 -11 0 -22 8 -25 18 -4 10 -21
24 -39 31 -28 11 -36 21 -46 59 -10 40 -10 48 3 58 17 12 22 74 6 74 -5 0 -10
9 -10 21 0 13 -10 23 -30 30 -16 6 -30 15 -30 20 0 5 -18 9 -40 9 -38 0 -40
-2 -40 -29 0 -62 -42 -52 -96 24 -35 49 -74 72 -74 45 0 -7 -27 -10 -72 -8
l-73 3 -8 80 c-6 66 -12 84 -34 107 -19 20 -24 33 -19 52 3 14 11 26 16 26 6
0 10 9 10 20 0 12 7 20 16 20 13 0 15 6 9 27 -4 16 -7 28 -8 29 -1 0 -21 6
-43 12 -41 12 -41 13 -48 67 -7 63 1 128 20 166 13 25 12 27 -31 49 l-45 23 0
76 c0 42 -5 92 -10 111 -6 20 -6 36 -1 38 14 5 -10 72 -26 72 -7 0 -16 7 -20
16 -5 13 -7 13 -14 2 -6 -9 -9 -6 -9 12 0 20 -2 22 -10 10 -9 -13 -10 -13 -10
0 0 12 -2 12 -9 2 -7 -11 -10 -10 -15 3 -11 30 -6 73 9 79 8 3 14 16 14 28
l-2 23 -4 -23 c-2 -12 -11 -22 -19 -22 -8 0 -14 -10 -15 -22 -1 -44 -18 13
-18 65 -1 30 -5 47 -13 48 -10 0 -10 2 0 6 6 2 13 19 13 36 2 27 2 28 6 7 5
-30 33 -93 39 -88 2 2 1 34 -3 71 l-6 67 -36 1 c-20 0 -30 3 -23 6 6 2 12 13
12 24 0 11 7 19 16 19 9 0 14 7 12 18 -2 13 -15 18 -53 20 -60 4 -85 26 -85
77 0 19 -4 35 -10 35 -5 0 -10 14 -10 30 0 17 -5 30 -12 31 -10 0 -10 2 0 6 6
2 12 19 12 36 0 29 1 30 15 11 8 -10 15 -29 15 -40 0 -32 24 -48 40 -29 10 12
10 21 2 40 -7 14 -16 25 -22 25 -5 0 -10 8 -10 19 0 10 -7 24 -15 31 -8 7 -15
28 -15 46 0 24 5 34 15 34 10 0 15 11 15 35 0 19 -4 35 -10 35 -5 0 -10 9 -10
19 0 21 -17 37 -28 27 -3 -4 -1 -16 6 -26 19 -32 15 -78 -9 -90 -11 -7 -23 -9
-27 -6 -3 3 0 6 6 6 7 0 12 14 12 30 0 17 -4 30 -10 30 -5 0 -10 18 -10 39 0
22 -5 41 -11 43 -8 3 -11 34 -10 92 2 86 1 87 -21 82 -13 -3 -17 -3 -10 0 14
7 16 70 2 79 -5 3 -10 17 -10 31 0 28 -40 74 -65 74 -12 0 -15 15 -15 80 0 47
-4 80 -10 80 -5 0 -10 14 -10 30 0 17 -4 30 -10 30 -5 0 -10 9 -10 20 0 11 -4
20 -10 20 -5 0 -10 9 -10 20 0 11 -4 20 -10 20 -5 0 -10 9 -10 20 0 11 -6 20
-12 21 -10 0 -10 2 0 6 14 6 17 113 3 113 -6 0 -9 24 -8 54 2 44 -2 59 -20 78
-17 18 -23 36 -23 72 0 34 4 46 13 44 6 -3 13 -13 15 -24 3 -21 21 -62 36 -82
7 -10 13 -3 22 25 8 21 14 39 14 39 0 1 -13 4 -30 8 -18 3 -30 12 -30 21 0 9
-12 18 -30 21 -25 5 -30 11 -30 35 0 16 -4 29 -10 29 -5 0 -10 23 -10 50 0 28
-4 50 -10 50 -5 0 -10 18 -10 40 0 22 -4 40 -10 40 -5 0 -10 9 -10 20 0 11 -4
20 -10 20 -5 0 -10 20 -10 44 0 36 -4 46 -20 51 -17 5 -20 15 -20 61 0 34 -5
61 -14 69 -22 23 -36 -3 -36 -69 0 -55 -1 -59 -14 -40 -9 12 -17 63 -21 132
l-8 112 -41 10 c-65 17 -66 18 -66 48 0 16 -3 44 -7 63 -5 29 -7 30 -15 14 -7
-16 -7 -14 -4 8 3 23 -1 30 -20 37 -29 11 -38 44 -39 136 0 62 -2 70 -17 66
-11 -3 -18 -14 -18 -29 0 -13 -4 -21 -10 -18 -5 3 -10 31 -10 61 0 61 -17 74
-23 17 -2 -21 -4 -1 -5 43 -2 70 -6 91 -32 139 -33 63 -36 85 -18 115 10 16
10 24 0 40 -6 11 -12 29 -12 39 0 11 -4 23 -10 26 -5 3 -10 15 -10 25 0 20
-32 84 -53 104 -7 7 -19 15 -28 18 -12 5 -19 24 -23 60 -4 29 -10 66 -13 82
-3 19 -2 26 6 22 6 -4 11 -22 12 -39 0 -28 1 -30 9 -10 10 23 -7 73 -25 73 -5
0 -18 27 -27 59 -13 42 -24 62 -39 66 -11 4 -25 18 -31 31 -6 13 -15 24 -20
24 -4 0 -7 42 -6 93 3 88 4 92 26 91 22 -1 22 0 3 18 -23 20 -48 71 -54 108
-4 22 -4 21 -6 -6 0 -16 4 -35 10 -41 14 -14 5 -43 -14 -43 -30 0 -46 36 -57
130 -6 52 -15 99 -20 104 -6 6 -10 17 -10 25 0 9 -7 29 -15 45 -17 31 -21 182
-6 188 10 4 -27 131 -40 136 -5 2 -9 73 -9 159 0 160 -4 171 -39 105 -6 -12
-15 -22 -20 -22 -4 0 -11 48 -16 108 -4 59 -8 121 -10 137 -4 51 -15 75 -36
75 -10 0 -19 5 -19 10 0 6 -11 10 -25 10 -14 0 -25 5 -25 10 0 6 -7 10 -15 10
-8 0 -15 5 -15 10 0 6 -7 10 -15 10 -8 0 -15 4 -15 9 0 5 -6 16 -13 23 -28 29
-49 71 -44 89 5 17 -1 19 -43 19 l-48 0 -7 48 c-3 26 -6 52 -5 58 1 5 -1 19
-5 32 -6 17 -15 22 -41 22 -18 0 -36 5 -39 10 -3 6 -14 10 -23 10 -10 0 -24 9
-32 20 -8 11 -22 20 -32 20 -10 0 -18 5 -18 11 0 16 -42 48 -62 49 -13 0 -18
8 -18 30 0 17 -4 30 -10 30 -5 0 -10 9 -10 20 0 11 -4 20 -9 20 -5 0 -11 19
-15 42 -4 23 -12 48 -18 55 -6 8 -7 13 0 13 5 0 15 -7 22 -15 7 -8 17 -15 23
-15 17 0 87 -72 87 -89 0 -8 3 -12 6 -8 3 3 -1 31 -10 61 -15 50 -19 56 -44
56 -32 0 -55 29 -62 80 -4 29 -10 36 -32 38 -24 3 -27 8 -30 45 -2 32 -8 44
-27 53 -13 7 -44 32 -70 57 -25 24 -54 47 -63 50 -10 4 -18 12 -18 20 0 7 -13
26 -30 42 -16 16 -30 35 -30 42 0 7 -4 13 -10 13 -5 0 -10 15 -10 33 0 17 -3
49 -6 70 l-7 37 -103 0 c-121 0 -138 10 -158 93 -6 27 -6 27 49 27 30 0 55 4
55 9 0 14 -28 33 -47 31 -39 -4 -53 1 -53 18 0 10 -11 25 -25 32 -14 7 -25 22
-25 32 0 10 -7 18 -15 18 -8 0 -17 10 -20 23 -12 56 -11 61 17 67 43 8 19 26
-43 33 -58 5 -119 30 -119 47 0 6 7 10 15 10 8 0 15 5 15 10 0 6 7 10 15 10
28 0 15 28 -15 35 -21 5 -30 13 -30 26 0 10 -5 19 -10 19 -7 0 -9 13 -5 33 5
23 2 37 -8 46 -8 6 -27 36 -42 66 -21 44 -31 55 -51 55 -20 0 -24 5 -24 29 0
16 -7 34 -15 41 -12 10 -15 10 -15 0 0 -10 -3 -10 -15 0 -8 7 -15 23 -15 36 0
17 -6 23 -27 26 -22 2 -33 13 -50 48 -20 40 -103 130 -121 130 -25 1 -70 60
-103 135 -15 35 -198 225 -216 225 -7 0 -13 7 -13 15 0 9 -8 19 -17 22 -28 10
-33 24 -33 100 0 92 -5 103 -44 103 -17 1 -48 7 -69 14 -32 12 -36 12 -26 0
14 -17 67 -44 86 -44 8 0 13 -12 13 -31 0 -23 -5 -32 -21 -36 -21 -6 -21 -7
-4 -19 10 -8 15 -17 12 -21 -7 -7 -41 24 -46 42 -2 6 -8 9 -13 7 -6 -2 -8 4
-5 12 4 11 1 13 -10 9 -10 -4 -14 -2 -10 4 3 5 -22 36 -56 69 l-62 59 55 -57
c30 -32 50 -58 44 -58 -9 0 -117 107 -145 144 -12 17 -12 19 1 11 12 -6 13 -5
3 6 -7 7 -13 19 -13 27 0 8 -9 21 -19 30 -11 10 -21 36 -24 60 -5 42 -5 43 14
26 18 -16 19 -16 19 4 0 18 6 22 31 22 24 0 30 3 25 16 -3 9 -6 20 -6 25 0 5
-9 9 -19 9 -21 0 -31 19 -31 59 0 48 -17 58 -112 64 l-88 6 13 -22 c19 -34 70
-87 83 -87 7 0 15 -4 19 -9 8 -13 -52 4 -82 24 -13 9 -28 27 -33 40 -5 12 -14
26 -19 30 -6 3 -11 15 -11 26 0 13 -7 19 -21 19 -15 0 -19 -5 -15 -15 3 -9 0
-15 -9 -15 -8 0 -15 7 -15 15 0 8 5 15 10 15 18 0 10 28 -13 47 -15 12 -26 34
-30 61 -8 46 0 53 28 22 10 -11 24 -20 31 -20 14 0 44 -54 44 -81 0 -10 5 -21
10 -24 15 -9 12 54 -5 113 -12 39 -21 52 -35 52 -10 0 -22 9 -25 21 -5 14 -10
18 -14 10 -12 -18 -29 8 -33 49 -2 29 -7 35 -29 38 -23 3 -27 9 -32 44 -5 34
-17 53 -71 107 -36 37 -66 70 -66 74 0 17 -84 97 -102 97 -10 0 -21 7 -24 15
-3 8 -15 17 -25 20 -11 4 -37 25 -59 48 l-39 42 -1 91 c0 97 -4 104 -51 104
-15 0 -19 7 -19 38 1 31 3 34 13 21 12 -16 57 -32 57 -21 -1 18 -29 42 -49 42
-18 0 -21 6 -21 38 0 29 -7 45 -30 67 -16 16 -30 25 -30 20 0 -5 -12 3 -27 17
-16 14 -38 28 -50 31 -20 4 -23 1 -23 -24 0 -22 -5 -29 -20 -29 -26 0 -29 49
-2 51 16 1 16 2 0 6 -11 3 -18 14 -18 29 0 42 -24 57 -75 49 -42 -6 -45 -5
-45 16 0 21 1 22 20 4 11 -10 20 -14 20 -9 0 5 -9 16 -20 24 -10 8 -22 28 -26
44 -3 17 -13 45 -21 61 l-16 30 27 -24 c19 -18 26 -21 26 -9 0 8 -9 23 -20 33
-11 10 -20 25 -20 34 0 29 -45 111 -61 111 -22 0 -79 29 -79 41 0 5 5 9 10 9
6 0 10 11 10 25 0 14 5 25 10 25 6 0 10 -13 10 -30 0 -16 5 -30 10 -30 17 0
11 29 -15 76 -14 25 -25 50 -25 57 0 7 -20 18 -45 25 -30 8 -45 17 -45 28 0
10 -5 14 -16 10 -8 -3 -13 -2 -10 3 3 5 -3 11 -14 14 -45 12 -15 22 53 19 68
-4 73 -3 74 17 2 18 -4 21 -43 21 l-44 0 0 180 0 180 45 0 45 0 0 69 c0 38 3
76 6 85 3 9 1 16 -5 16 -7 0 -11 -28 -11 -80 l0 -80 -30 0 -29 0 -3 153 -3
152 -30 0 -30 0 -3 -157 -3 -158 -24 0 -25 0 0 175 c0 207 9 247 57 266 18 7
33 16 33 20 0 5 24 9 53 11 l52 3 3 77 3 77 52 4 c31 2 16 4 -38 4 -49 1 -98
5 -107 8 -19 8 -25 35 -8 35 6 0 10 7 10 15 0 8 5 15 10 15 6 0 10 9 10 19 0
16 9 21 44 26 39 6 48 13 76 57 18 27 41 55 51 61 15 9 19 24 19 65 0 82 18
128 57 143 18 7 35 21 39 31 3 10 14 18 25 18 10 0 19 5 19 10 0 6 11 10 25
10 l25 0 0 224 0 223 -40 7 c-37 6 -40 9 -40 37 0 37 -23 35 -28 -2 -2 -13 -8
-28 -14 -34 -17 -16 0 54 17 71 8 9 15 19 15 24 0 5 15 6 34 3 19 -3 36 -1 40
6 4 6 15 11 25 11 27 0 122 51 128 69 3 9 20 31 37 50 17 19 25 30 17 26 -9
-5 -12 -3 -9 6 3 8 20 18 39 23 56 16 64 46 24 94 -24 29 -25 36 -25 162 0
103 3 135 15 146 8 9 15 26 15 39 0 16 7 25 25 29 14 4 25 11 25 16 0 6 50 10
125 10 69 0 125 3 125 8 0 15 -16 29 -46 42 -24 10 -33 23 -43 57 -6 25 -9 49
-6 54 4 5 46 9 96 9 l89 0 0 44 0 44 -52 6 c-29 3 -101 9 -160 12 l-108 7 0
68 0 69 55 0 c30 0 55 -4 55 -10 0 -6 33 -10 80 -10 l80 0 0 -65 c0 -63 1 -65
25 -65 24 0 25 2 25 69 l0 68 -46 7 c-26 3 -69 6 -95 6 -47 0 -49 1 -49 28 l0
29 98 6 c53 4 143 7 199 7 94 0 101 1 96 19 -3 10 1 30 8 42 11 22 11 23 -4
10 -15 -12 -17 -9 -17 31 0 25 -3 47 -6 50 -9 10 -64 -23 -64 -38 0 -8 -7 -14
-15 -14 -8 0 -23 -18 -32 -40 -14 -32 -23 -40 -44 -40 -18 0 -28 6 -31 18 -6
21 -51 32 -135 32 -46 0 -53 3 -53 20 0 19 7 20 109 20 l109 0 12 30 c7 16 18
35 26 41 24 20 16 29 -26 29 l-40 0 0 55 0 55 60 0 60 0 0 -35 c0 -19 -4 -35
-9 -35 -5 0 -11 -7 -15 -15 -4 -12 -2 -13 14 -2 16 9 20 23 20 65 0 82 18 128
57 143 18 7 35 21 39 31 3 10 14 18 25 18 10 0 19 5 19 10 0 6 11 10 25 10 24
0 25 2 25 63 l0 62 -89 3 -90 4 -4 -29 c-4 -27 -4 -27 -6 5 l-1 32 90 0 90 0
0 50 0 50 125 0 c77 0 125 4 125 10 0 6 -26 10 -57 11 -32 0 -78 4 -103 9 -30
6 9 7 115 4 l161 -5 22 30 c12 17 22 33 22 36 0 3 -18 5 -40 5 l-40 0 0 55 0
55 -55 0 -55 0 0 33 c0 47 29 77 74 77 l36 0 0 -55 0 -55 60 0 60 0 0 -35 c0
-19 -4 -35 -9 -35 -5 0 -12 -7 -15 -16 -3 -9 12 -2 39 17 l45 32 0 84 0 83
-70 0 c-38 0 -70 4 -70 9 0 4 9 20 20 34 27 34 26 37 -21 37 l-40 0 3 53 3 52
58 3 57 3 0 -36 c0 -19 -4 -35 -9 -35 -5 0 -11 -7 -15 -15 -3 -8 17 1 45 20
28 19 55 35 60 35 5 0 9 22 9 48 0 33 6 56 19 70 18 21 26 22 216 22 l197 0
-6 23 c-3 12 -3 59 1 105 l6 82 51 2 51 2 -47 3 c-39 3 -47 8 -50 26 -3 20
-10 23 -108 30 -58 4 -132 6 -165 5 -57 -3 -60 -4 -63 -30 -3 -25 -7 -28 -43
-28 l-39 0 0 70 0 70 40 0 c22 0 40 5 40 10 0 6 81 11 218 12 l217 2 -220 6
-220 6 218 2 217 2 0 60 0 60 104 0 105 0 4 -37 4 -38 1 40 c0 22 1 46 1 53 1
9 27 12 96 12 88 0 95 1 95 20 0 13 7 20 18 20 10 0 24 9 32 20 14 19 26 20
207 20 165 0 193 -2 193 -15z m1223 -370 c18 -25 18 -25 -8 -25 -20 0 -25 5
-25 25 0 31 10 31 33 0z m-2503 -175 l0 -40 -72 2 -73 2 68 3 67 4 0 34 c0 19
2 35 5 35 3 0 5 -18 5 -40z m-953 -742 c-3 -7 -5 -2 -5 12 0 14 2 19 5 13 2
-7 2 -19 0 -25z m0 -135 c-3 -10 -5 -2 -5 17 0 19 2 27 5 18 2 -10 2 -26 0
-35z m5172 -20 c0 -11 -3 -13 -6 -5 -2 6 -13 12 -23 12 -10 0 -21 -6 -23 -12
-3 -8 -6 -6 -6 5 -1 12 7 17 29 17 22 0 30 -5 29 -17z m38 -29 c-3 -3 -12 -4
-19 -1 -8 3 -5 6 6 6 11 1 17 -2 13 -5z m-5427 -474 c0 -6 33 -10 80 -10 73 0
80 -2 80 -20 0 -18 -7 -20 -80 -20 -47 0 -80 -4 -80 -10 0 -5 -25 -10 -55 -10
l-55 0 0 40 0 40 55 0 c30 0 55 -4 55 -10z m-120 -400 l0 -130 -30 0 -30 0 0
80 c0 73 -2 80 -20 80 -15 0 -20 7 -20 28 0 41 29 72 68 72 l32 0 0 -130z
m7333 -47 c-29 -2 -77 -2 -105 0 -29 2 -6 3 52 3 58 0 81 -1 53 -3z m751 -409
c5 -12 -1 -15 -31 -12 -48 4 -57 28 -10 28 22 0 37 -6 41 -16z m-8636 -736
l-3 -63 -35 0 -35 0 -3 57 c-3 52 -1 57 20 61 60 11 59 12 56 -55z m-78 -853
c0 -11 -11 -15 -47 -14 -27 1 -38 4 -25 6 12 2 22 9 22 14 0 5 11 9 25 9 16 0
25 -6 25 -15z m10080 -100 c0 -43 -4 -75 -10 -75 -6 0 -10 32 -10 75 0 43 4
75 10 75 6 0 10 -32 10 -75z m-73 -327 c-2 -35 -3 -7 -3 62 0 69 1 97 3 63 2
-35 2 -91 0 -125z m137 -177 c-4 -9 -15 -45 -25 -81 l-17 -65 -1 85 c0 120 13
233 27 238 7 2 13 13 14 25 1 12 4 -25 5 -82 2 -58 0 -112 -3 -120z m-10374
-45 c0 -85 4 -166 10 -180 9 -24 7 -26 -15 -26 -13 0 -40 9 -60 20 -20 11 -44
20 -55 20 -18 0 -20 7 -20 70 0 54 3 70 14 70 8 0 18 -4 21 -10 3 -5 11 -10
17 -10 7 0 8 32 3 100 l-7 100 46 0 46 0 0 -154z m80 -202 c0 -14 -4 -23 -10
-19 -5 3 -10 15 -10 26 0 10 5 19 10 19 6 0 10 -12 10 -26z m-8 -123 c21 -41
38 -76 38 -78 0 -1 -11 -3 -24 -3 -20 0 -31 12 -57 60 -19 35 -38 60 -48 60
-9 0 -22 9 -29 21 -12 19 -11 20 35 17 l47 -3 38 -74z m401 -518 c-7 -2 -19
-2 -25 0 -7 3 -2 5 12 5 14 0 19 -2 13 -5z m184 -175 c16 -18 33 -41 36 -50 6
-16 -1 -18 -48 -18 l-55 0 0 50 c0 42 3 50 18 50 10 0 32 -15 49 -32z m9863
-599 c0 -104 -3 -158 -10 -154 -6 4 -10 66 -10 154 0 130 3 161 17 161 2 0 3
-72 3 -161z m-8690 -1143 c0 -3 -7 -6 -15 -6 -9 0 -15 9 -15 21 0 18 2 19 15
5 8 -8 15 -17 15 -20z m8984 -73 c4 -27 2 -43 -4 -43 -5 0 -10 21 -10 47 0 55
5 54 14 -4z m-8816 -112 c12 -10 22 -25 22 -34 0 -8 5 -17 11 -19 8 -3 10 -16
5 -41 -5 -28 -12 -37 -26 -37 -16 0 -20 7 -20 38 -1 20 -7 54 -14 75 -15 41
-9 46 22 18z m112 -211 c0 -5 11 -10 25 -10 15 0 25 -6 25 -14 0 -8 10 -17 23
-20 12 -3 -8 -3 -45 -1 -59 4 -148 34 -148 50 0 3 27 5 60 5 33 0 60 -4 60
-10z m155 -95 c19 -19 35 -41 35 -50 0 -8 5 -15 10 -15 6 0 10 -9 10 -20 0
-13 7 -20 20 -20 13 0 20 -7 20 -20 0 -11 5 -20 10 -20 6 0 10 -9 10 -20 0
-11 5 -20 10 -20 6 0 10 -4 10 -9 0 -12 -60 8 -78 26 -7 7 -22 13 -33 13 -15
0 -19 7 -19 39 0 61 -11 99 -30 104 -18 5 -35 47 -19 47 5 0 25 -16 44 -35z
m290 -255 c3 -5 2 -10 -4 -10 -5 0 -13 5 -16 10 -3 6 -2 10 4 10 5 0 13 -4 16
-10z m15 -90 c8 -11 20 -20 27 -20 8 0 13 -13 13 -35 0 -29 -4 -35 -17 -33
-12 2 -19 -5 -21 -20 -3 -19 -9 -23 -30 -20 -26 3 -27 5 -30 76 -3 70 -2 72
20 72 13 0 30 -9 38 -20z m-30 -220 c0 -5 -2 -10 -4 -10 -3 0 -8 5 -11 10 -3
6 -1 10 4 10 6 0 11 -4 11 -10z m0 -55 c0 -8 -7 -15 -15 -15 -8 0 -15 7 -15
15 0 8 7 15 15 15 8 0 15 -7 15 -15z m8300 -159 c0 -8 -5 -16 -12 -18 -10 -4
-10 -35 0 -144 7 -76 12 -165 12 -196 0 -55 -1 -58 -25 -58 -24 0 -25 3 -25
60 0 33 4 60 10 60 6 0 10 58 10 155 0 131 2 155 15 155 8 0 15 -6 15 -14z
m-7760 -446 c0 -5 -2 -10 -4 -10 -3 0 -8 5 -11 10 -3 6 -1 10 4 10 6 0 11 -4
11 -10z m180 -135 c11 -28 19 -35 42 -35 26 0 28 -3 28 -37 0 -24 8 -45 23
-62 l22 -25 -40 24 c-22 13 -50 28 -62 34 -16 7 -23 20 -23 39 0 15 -4 27 -10
27 -5 0 -10 12 -10 26 0 14 -9 33 -19 42 -11 10 -22 28 -26 42 -7 24 -6 24 27
-8 19 -18 41 -48 48 -67z m7660 -430 c0 -43 -4 -75 -10 -75 -6 0 -10 32 -10
75 0 43 4 75 10 75 6 0 10 -32 10 -75z m-143 -751 c-3 -3 -12 -4 -19 -1 -8 3
-5 6 6 6 11 1 17 -2 13 -5z m-80 -486 c-3 -8 -6 -5 -6 6 -1 11 2 17 5 13 3 -3
4 -12 1 -19z m46 -208 c-3 -11 -9 -23 -14 -26 -13 -8 -11 -42 4 -47 7 -3 5 -6
-5 -6 -22 -1 -24 32 -5 72 14 31 27 36 20 7z m-3 -215 l0 -55 -47 2 c-45 1
-46 2 -25 19 12 9 22 22 22 28 0 6 5 11 10 11 6 0 15 11 20 25 15 38 20 30 20
-30z m-6420 4 c0 -6 -4 -7 -10 -4 -5 3 -10 11 -10 16 0 6 5 7 10 4 6 -3 10
-11 10 -16z m6246 -502 c1 -43 -1 -54 -6 -37 -13 42 -11 100 4 100 1 0 2 -28
2 -63z m-5973 -137 c9 -16 12 -32 8 -35 -13 -8 -44 33 -38 50 9 21 14 19 30
-15z m-13 -75 c0 -13 5 -27 10 -30 6 -3 10 -44 10 -90 0 -46 5 -87 10 -90 6
-3 10 -17 10 -30 0 -13 5 -27 10 -30 6 -3 10 -15 10 -25 0 -11 9 -35 20 -55
28 -50 27 -85 -4 -85 -20 0 -24 7 -34 58 -6 31 -20 91 -32 132 -24 87 -40 288
-22 276 7 -4 12 -18 12 -31z m5747 -422 c-3 -10 -5 -4 -5 12 0 17 2 24 5 18 2
-7 2 -21 0 -30z m-5537 -369 c0 -19 -5 -25 -17 -22 -22 4 -30 38 -12 49 19 11
29 2 29 -27z m5540 -29 c0 -30 -3 -55 -7 -55 -5 0 -6 25 -5 55 5 71 12 71 12
0z m-5393 -42 c-3 -10 -5 -2 -5 17 0 19 2 27 5 18 2 -10 2 -26 0 -35z m5308
-82 c-3 -6 -11 -11 -17 -11 -6 0 -6 6 2 15 14 17 26 13 15 -4z m-5107 -417
c-2 -15 -8 -29 -14 -31 -17 -6 -25 24 -13 54 12 33 32 18 27 -23z m4792 -9 c0
-16 -6 -25 -15 -25 -9 0 -15 9 -15 25 0 16 6 25 15 25 9 0 15 -9 15 -25z
m-4580 -886 c0 -16 -4 -29 -10 -29 -5 0 -10 16 -10 36 0 21 4 33 10 29 6 -3
10 -19 10 -36z m4252 -708 c2 -17 1 -28 -4 -25 -8 5 -12 54 -4 54 2 0 6 -13 8
-29z m-122 -218 c-19 -3 -39 -9 -44 -14 -16 -15 -28 -10 -14 6 8 8 29 14 53
13 l40 -1 -35 -4z m8 -140 c-15 -2 -42 -2 -60 0 -18 2 -6 4 27 4 33 0 48 -2
33 -4z m-3688 -250 c0 -17 5 -35 10 -38 19 -12 10 -25 -16 -25 -25 0 -25 -1
-19 -57 l6 -58 -21 38 c-11 20 -25 37 -30 37 -6 0 -10 11 -10 25 0 22 3 25 25
19 25 -6 25 -6 25 62 0 62 1 66 15 48 8 -10 15 -33 15 -51z m3548 -70 c-21 -2
-55 -2 -75 0 -21 2 -4 4 37 4 41 0 58 -2 38 -4z m24 -65 c-11 -44 -132 -142
-132 -107 0 5 7 9 15 9 20 0 105 85 105 105 0 8 4 15 9 15 5 0 7 -10 3 -22z
m-482 -803 c0 -11 -12 -15 -51 -15 -45 0 -50 2 -39 15 7 9 29 15 51 15 28 0
39 -4 39 -15z m-1853 -321 c31 -31 32 -81 1 -86 -17 -2 -24 -11 -26 -30 -2
-16 1 -28 7 -28 6 0 11 -5 11 -12 0 -7 -7 -5 -17 5 -10 8 -39 18 -65 22 -51 8
-69 35 -23 35 24 0 25 2 25 63 l0 64 32 -5 c17 -3 42 -15 55 -28z m33 -194 c0
-5 -2 -10 -4 -10 -3 0 -8 5 -11 10 -3 6 -1 10 4 10 6 0 11 -4 11 -10z m57 -56
c14 -14 23 -27 21 -30 -3 -2 -17 10 -33 26 -35 36 -24 40 12 4z m73 -74 c8
-11 22 -20 32 -20 10 0 18 -4 18 -10 0 -5 -4 -10 -10 -10 -13 0 -78 59 -65 60
6 0 17 -9 25 -20z m613 -157 c11 -13 30 -23 42 -23 27 0 52 -27 57 -60 1 -13
13 -30 26 -36 49 -24 92 -76 92 -110 0 -18 5 -36 10 -39 6 -3 10 -16 10 -29 0
-13 9 -31 20 -41 11 -10 20 -24 20 -32 0 -7 6 -13 13 -13 8 0 22 -9 32 -20 10
-11 28 -20 40 -20 32 0 57 -33 52 -67 l-4 -28 -2 31 c-1 36 -17 54 -47 54 -12
0 -28 7 -35 16 -7 9 -23 20 -36 25 -13 5 -23 15 -23 22 0 8 -9 22 -20 32 -11
10 -20 28 -20 41 0 13 -4 26 -10 29 -5 3 -10 20 -10 38 0 21 -10 41 -32 64
-18 18 -36 33 -42 33 -18 0 -46 33 -46 55 0 27 -18 45 -45 45 -32 0 -75 50
-74 86 l2 29 4 -30 c3 -16 14 -40 26 -52z m-93 -215 c0 -17 -5 -28 -14 -28 -9
0 -12 8 -8 25 2 15 0 25 -7 25 -6 0 -11 10 -11 22 0 20 1 21 20 3 11 -10 20
-31 20 -47z"/>
<path d="M11363 24093 c86 -2 228 -2 315 0 86 1 15 3 -158 3 -173 0 -244 -2
-157 -3z"/>
<path d="M12955 23765 c54 -18 75 -18 75 0 0 12 -13 15 -57 14 l-58 -1 40 -13z"/>
<path d="M13185 23549 c-11 -16 4 -59 20 -59 10 0 15 11 15 35 0 35 -20 49
-35 24z"/>
<path d="M13720 23270 c0 -5 9 -10 20 -10 11 0 20 5 20 10 0 6 -9 10 -20 10
-11 0 -20 -4 -20 -10z"/>
<path d="M10441 23224 c0 -11 3 -14 6 -6 3 7 2 16 -1 19 -3 4 -6 -2 -5 -13z"/>
<path d="M13720 23216 c0 -22 4 -24 50 -24 44 -1 54 -5 76 -31 14 -17 33 -31
42 -31 15 0 15 2 2 10 -13 8 -13 10 2 10 10 0 20 10 24 25 3 14 10 25 15 25 5
0 9 9 9 20 0 19 -7 20 -110 20 -109 0 -110 0 -110 -24z"/>
<path d="M14042 22973 c-28 -4 -31 -7 -21 -19 18 -22 59 -18 59 6 0 11 -1 19
-2 18 -2 0 -18 -3 -36 -5z"/>
<path d="M9906 22420 c-8 -16 -10 -30 -5 -30 5 0 14 11 19 24 5 14 19 26 32
29 21 4 21 4 -4 6 -20 1 -30 -6 -42 -29z"/>
<path d="M15047 22348 c-8 -29 -1 -38 29 -38 15 0 24 -6 24 -15 0 -8 7 -15 15
-15 20 0 20 56 1 76 -23 22 -63 18 -69 -8z"/>
<path d="M16326 21731 c5 -6 29 -11 54 -13 l45 -4 -30 -14 -30 -14 38 -4 c20
-2 37 -7 37 -13 0 -5 44 -9 100 -9 l100 0 0 40 c0 33 -3 40 -19 40 -11 0 -23
-4 -26 -10 -3 -5 -39 -10 -78 -9 -50 0 -66 3 -52 9 13 6 -8 9 -64 9 -53 1 -81
-3 -75 -8z"/>
<path d="M16275 21670 c-4 -6 5 -10 19 -10 14 0 26 5 26 10 0 6 -9 10 -19 10
-11 0 -23 -4 -26 -10z"/>
<path d="M9288 21395 c-3 -66 -1 -75 15 -75 11 0 17 8 17 23 0 12 9 29 20 37
11 8 20 22 20 30 0 9 15 21 35 29 54 19 42 31 -34 31 l-69 0 -4 -75z"/>
<path d="M9219 21164 c-7 -9 -23 -20 -36 -25 -13 -5 -23 -15 -23 -24 0 -8 -8
-15 -17 -15 -20 0 -43 -42 -43 -77 0 -14 6 -23 15 -23 23 0 30 -28 14 -58 -17
-36 -60 -82 -75 -82 -6 0 -17 -7 -24 -15 -11 -13 -1 -15 76 -15 56 1 95 5 106
13 13 11 18 41 24 175 4 89 4 162 2 162 -3 0 -12 -7 -19 -16z"/>
<path d="M17570 21120 c-19 -4 -29 -8 -22 -9 6 0 12 -7 12 -15 0 -7 9 -16 20
-19 13 -3 20 0 20 9 0 11 28 14 155 14 131 0 155 2 155 15 0 13 -23 15 -152
14 -84 -1 -169 -5 -188 -9z"/>
<path d="M18402 20720 c0 -19 2 -27 5 -17 2 9 2 25 0 35 -3 9 -5 1 -5 -18z"/>
<path d="M8828 20043 c12 -2 30 -2 40 0 9 3 -1 5 -23 4 -22 0 -30 -2 -17 -4z"/>
<path d="M8765 19878 c0 -137 2 -153 18 -156 16 -3 17 9 15 155 l-2 158 -3
-152 c-2 -88 -8 -153 -13 -153 -5 0 -11 64 -13 150 l-3 150 1 -152z"/>
<path d="M8825 18649 c4 -18 20 -45 36 -60 16 -15 29 -32 29 -39 0 -16 26 -40
44 -40 32 0 13 86 -20 94 -14 4 -24 14 -24 25 0 15 -14 26 -64 49 -4 3 -5 -11
-1 -29z"/>
<path d="M8953 18468 c1 -26 7 -33 25 -34 17 -1 18 -1 3 3 -12 3 -22 15 -25
34 -6 28 -6 27 -3 -3z"/>
<path d="M9080 18485 c-6 -8 -13 -29 -13 -47 -2 -29 1 -33 26 -36 24 -3 27 0
27 25 0 36 -10 73 -20 73 -4 0 -13 -7 -20 -15z"/>
<path d="M8868 18443 c7 -3 16 -2 19 1 4 3 -2 6 -13 5 -11 0 -14 -3 -6 -6z"/>
<path d="M18718 18248 c-24 -24 -26 -128 -3 -128 22 0 26 18 23 86 -3 56 -4
58 -20 42z"/>
<path d="M18663 18155 c0 -22 2 -30 4 -17 2 12 2 30 0 40 -3 9 -5 -1 -4 -23z"/>
<path d="M9240 18040 c0 -11 9 -29 20 -40 11 -11 20 -33 20 -50 0 -20 5 -30
15 -30 23 0 19 63 -5 85 -11 10 -20 26 -20 37 0 10 -7 18 -15 18 -8 0 -15 -9
-15 -20z m35 -30 c3 -5 1 -10 -4 -10 -6 0 -11 5 -11 10 0 6 2 10 4 10 3 0 8
-4 11 -10z"/>
<path d="M9360 17938 c0 -9 -8 -22 -17 -27 -15 -9 -16 -10 -2 -11 24 0 59 -43
59 -73 0 -21 5 -27 21 -27 19 0 20 4 14 43 -7 44 -75 131 -75 95z"/>
<path d="M9490 17706 c32 -34 81 -66 102 -66 4 0 8 9 8 20 0 11 -7 20 -15 20
-8 0 -15 6 -15 13 0 7 -19 18 -42 25 -24 7 -50 16 -58 19 -8 3 1 -11 20 -31z"/>
<path d="M9600 17602 c0 -9 9 -23 20 -30 18 -11 20 -10 20 18 0 23 -4 30 -20
30 -12 0 -20 -7 -20 -18z"/>
<path d="M9730 17535 c0 -14 5 -25 10 -25 6 0 10 11 10 25 0 14 -4 25 -10 25
-5 0 -10 -11 -10 -25z"/>
<path d="M9685 17520 c-9 -27 2 -40 30 -40 22 0 24 2 13 24 -14 33 -35 40 -43
16z"/>
<path d="M9745 17450 c3 -5 8 -10 11 -10 2 0 4 5 4 10 0 6 -5 10 -11 10 -5 0
-7 -4 -4 -10z"/>
<path d="M9961 16874 c0 -11 3 -14 6 -6 3 7 2 16 -1 19 -3 4 -6 -2 -5 -13z"/>
<path d="M9980 16846 c0 -2 13 -6 29 -8 17 -2 28 -1 25 4 -5 8 -54 12 -54 4z"/>
<path d="M10056 16784 c4 -11 14 -28 23 -38 16 -19 15 -19 -11 -1 -16 9 -28
24 -28 31 0 8 -9 14 -20 14 -11 0 -20 -7 -20 -15 0 -8 5 -15 10 -15 6 0 9 -6
8 -12 -2 -8 5 -12 16 -10 10 2 23 -2 27 -10 7 -10 12 -11 29 0 11 6 25 12 31
12 10 0 39 24 39 33 0 2 -13 7 -29 10 -16 3 -40 9 -55 13 -23 5 -25 4 -20 -12z"/>
<path d="M10248 16743 c6 -2 18 -2 25 0 6 3 1 5 -13 5 -14 0 -19 -2 -12 -5z"/>
<path d="M10453 16379 c6 -10 19 -19 29 -19 9 0 20 -4 23 -10 3 -5 17 -10 31
-10 22 0 24 -4 24 -44 0 -29 5 -46 14 -49 8 -3 16 -14 19 -24 6 -24 -3 74 -9
110 -4 21 -11 27 -32 27 -15 0 -46 9 -69 20 -42 19 -42 19 -30 -1z"/>
<path d="M10571 16224 c0 -11 3 -14 6 -6 3 7 2 16 -1 19 -3 4 -6 -2 -5 -13z"/>
<path d="M11021 15745 c-1 -59 1 -65 19 -65 18 0 20 6 18 41 -1 22 -6 43 -10
45 -4 3 -8 14 -8 25 0 10 -4 19 -9 19 -5 0 -9 -29 -10 -65z"/>
<path d="M19160 14440 c0 -5 -7 -10 -16 -10 -8 0 -22 -6 -29 -14 -12 -12 -11
-16 5 -31 11 -10 20 -23 20 -30 0 -6 11 -22 25 -35 l25 -23 0 76 c0 62 -3 77
-15 77 -8 0 -15 -4 -15 -10z"/>
<path d="M12113 14233 c9 -2 25 -2 35 0 9 3 1 5 -18 5 -19 0 -27 -2 -17 -5z"/>
<path d="M19160 14120 c0 -5 -7 -10 -15 -10 -9 0 -25 -8 -36 -18 -19 -18 -19
-19 -1 -36 17 -15 20 -15 32 -1 7 8 21 15 31 15 14 0 19 7 19 30 0 20 -5 30
-15 30 -8 0 -15 -4 -15 -10z"/>
<path d="M19167 13953 c-4 -3 -7 -16 -7 -28 0 -11 -4 -25 -8 -30 -11 -13 -3
-117 9 -109 5 3 9 38 9 78 0 43 5 77 12 84 7 7 8 12 2 12 -6 0 -14 -3 -17 -7z"/>
<path d="M12482 13824 c2 -31 8 -39 29 -45 26 -6 26 -6 14 29 -7 19 -20 39
-29 44 -15 9 -17 5 -14 -28z"/>
<path d="M12540 13752 c0 -5 9 -12 21 -15 13 -3 19 -1 16 6 -5 15 -37 22 -37
9z"/>
<path d="M12610 13451 c0 -11 5 -23 10 -26 6 -3 10 -31 10 -61 0 -65 15 -64
25 3 5 37 4 48 -9 55 -9 5 -16 15 -16 23 0 8 -4 17 -10 20 -5 3 -10 -3 -10
-14z"/>
<path d="M12758 13003 c7 -3 16 -2 19 1 4 3 -2 6 -13 5 -11 0 -14 -3 -6 -6z"/>
<path d="M12680 12971 c0 -17 5 -33 10 -36 6 -3 10 -14 10 -24 0 -10 7 -32 15
-47 9 -18 15 -23 15 -12 0 9 -4 20 -10 23 -5 3 -10 17 -10 30 0 13 -4 27 -10
30 -5 3 -10 17 -10 30 0 17 7 25 23 28 19 4 18 4 -5 6 -25 1 -28 -3 -28 -28z"/>
<path d="M12741 12857 c0 -10 11 -39 25 -64 17 -32 25 -57 22 -80 -2 -18 -1
-33 3 -33 4 0 9 -17 11 -37 2 -27 8 -39 21 -41 14 -3 17 4 17 47 0 28 -4 51
-10 51 -5 0 -10 14 -10 30 0 17 -4 30 -10 30 -5 0 -10 6 -10 14 0 8 -7 16 -15
20 -8 3 -15 12 -15 21 0 8 -4 15 -9 15 -5 0 -12 10 -14 23 -3 16 -5 17 -6 4z"/>
<path d="M12808 12410 c3 -31 8 -40 23 -40 22 0 24 15 7 53 -19 40 -34 33 -30
-13z"/>
<path d="M12898 12372 c2 -37 8 -71 13 -76 5 -6 9 -22 9 -37 0 -26 39 -113 47
-105 2 2 -5 20 -17 40 -11 20 -20 50 -20 66 0 16 -4 32 -10 35 -5 3 -10 35
-10 70 0 35 -3 66 -7 68 -5 3 -7 -25 -5 -61z"/>
<path d="M18813 11788 c-11 -13 -23 -31 -26 -40 -5 -15 0 -18 38 -18 l45 0 0
40 c0 32 -4 40 -18 40 -10 0 -28 -10 -39 -22z"/>
<path d="M18716 11664 c-4 -32 -10 -62 -15 -68 -9 -13 -21 -56 -15 -56 2 0 12
18 21 40 10 22 21 40 25 40 5 0 8 6 8 14 0 8 7 17 16 20 24 9 14 60 -12 64
-19 3 -22 -3 -28 -54z"/>
<path d="M13100 11600 c0 -5 5 -10 10 -10 6 0 10 5 10 10 0 6 -4 10 -10 10 -5
0 -10 -4 -10 -10z"/>
<path d="M18666 11513 c-6 -14 -5 -15 5 -6 7 7 10 15 7 18 -3 3 -9 -2 -12 -12z"/>
<path d="M18652 11450 c0 -14 2 -19 5 -12 2 6 2 18 0 25 -3 6 -5 1 -5 -13z"/>
<path d="M18563 11340 c0 -25 2 -35 4 -22 2 12 2 32 0 45 -2 12 -4 2 -4 -23z"/>
<path d="M13219 11298 c4 -28 6 -29 9 -9 2 13 0 27 -5 32 -6 6 -7 -3 -4 -23z"/>
<path d="M18482 11110 c0 -14 2 -19 5 -12 2 6 2 18 0 25 -3 6 -5 1 -5 -13z"/>
<path d="M13406 10963 c9 -78 14 -79 14 -5 0 38 -4 62 -11 62 -7 0 -8 -19 -3
-57z"/>
<path d="M13440 10965 c0 -30 5 -55 10 -55 6 0 10 25 10 55 0 30 -4 55 -10 55
-5 0 -10 -25 -10 -55z"/>
<path d="M18393 10815 c-18 -19 -16 -45 2 -45 10 0 15 10 15 30 0 34 0 34 -17
15z"/>
<path d="M13558 10710 c6 -8 12 -29 12 -48 0 -39 23 -40 27 -1 2 17 -5 30 -25
43 -15 11 -21 13 -14 6z"/>
<path d="M13700 10146 c0 -14 3 -26 8 -26 4 0 6 -19 4 -43 -3 -32 1 -47 13
-57 16 -13 17 -11 11 26 -4 23 -8 55 -8 73 -1 40 -28 66 -28 27z"/>
<path d="M18102 9973 c-1 -13 -6 -23 -11 -23 -5 0 -11 -8 -14 -17 -4 -10 -13
-36 -21 -58 -20 -51 -20 -75 -1 -75 9 0 15 9 15 22 0 13 19 40 48 67 27 25 36
35 21 22 l-28 -24 -4 54 c-2 30 -4 44 -5 32z"/>
<path d="M13770 9851 c0 -10 7 -24 15 -31 12 -10 15 -10 15 3 0 23 -11 47 -21
47 -5 0 -9 -8 -9 -19z"/>
<path d="M13830 9765 c0 -19 5 -35 10 -35 6 0 10 -11 10 -25 0 -18 5 -25 20
-25 18 0 20 4 14 43 -8 53 -21 77 -39 77 -10 0 -15 -11 -15 -35z"/>
<path d="M17840 9573 l0 -37 28 27 c15 15 33 27 40 27 7 0 12 5 12 10 0 6 -18
10 -40 10 -39 0 -40 -1 -40 -37z"/>
<path d="M17858 9473 c12 -2 32 -2 45 0 12 2 2 4 -23 4 -25 0 -35 -2 -22 -4z"/>
<path d="M17630 9195 c0 -19 5 -35 10 -35 6 0 10 10 10 23 0 13 5 28 12 35 9
9 7 12 -10 12 -18 0 -22 -6 -22 -35z"/>
<path d="M14290 8455 c0 -14 5 -25 10 -25 6 0 10 11 10 25 0 14 -4 25 -10 25
-5 0 -10 -11 -10 -25z"/>
<path d="M17452 8022 c-1 -7 -13 -17 -27 -22 -15 -6 -25 -17 -25 -30 0 -11 -5
-20 -11 -20 -17 0 -39 -27 -39 -49 0 -12 -4 -21 -10 -21 -5 0 -10 -11 -10 -25
0 -20 -5 -25 -25 -25 -22 0 -25 -4 -25 -36 0 -32 -18 -64 -35 -64 -4 0 -13 -7
-21 -15 -14 -13 -11 -15 25 -15 30 0 41 -4 41 -15 0 -10 10 -15 30 -15 23 0
30 4 30 20 0 11 7 20 15 20 20 0 65 45 65 65 0 8 9 15 20 15 13 0 20 7 20 20
0 11 5 20 10 20 6 0 10 9 10 20 0 11 -7 20 -15 20 -11 0 -15 18 -18 83 -1 45
-4 76 -5 69z"/>
<path d="M17161 7498 c0 -29 3 -47 6 -40 2 6 13 12 24 12 12 0 19 7 19 20 0
17 7 20 50 20 43 0 50 3 50 20 0 18 -7 20 -75 20 l-75 0 1 -52z"/>
<path d="M16173 7243 c15 -2 39 -2 55 0 15 2 2 4 -28 4 -30 0 -43 -2 -27 -4z"/>
<path d="M16132 7210 c0 -14 2 -19 5 -12 2 6 2 18 0 25 -3 6 -5 1 -5 -13z"/>
<path d="M16970 7210 c0 -11 5 -20 10 -20 6 0 10 9 10 20 0 11 -4 20 -10 20
-5 0 -10 -9 -10 -20z"/>
<path d="M16930 7160 c0 -5 5 -10 10 -10 6 0 10 5 10 10 0 6 -4 10 -10 10 -5
0 -10 -4 -10 -10z"/>
<path d="M16182 7126 c7 -8 15 -12 17 -11 5 6 -10 25 -20 25 -5 0 -4 -6 3 -14z"/>
<path d="M16440 7120 c0 -6 8 -13 18 -17 25 -9 62 -44 62 -60 0 -8 8 -16 18
-20 9 -3 27 -15 39 -25 11 -11 29 -18 40 -16 15 3 18 15 21 76 l3 72 -101 0
c-62 0 -100 -4 -100 -10z"/>
<path d="M16283 7053 c9 -2 25 -2 35 0 9 3 1 5 -18 5 -19 0 -27 -2 -17 -5z"/>
<path d="M17122 6970 c0 -14 2 -19 5 -12 2 6 2 18 0 25 -3 6 -5 1 -5 -13z"/>
<path d="M16431 6953 c-1 -14 -9 -23 -23 -26 l-23 -4 23 -2 c24 -1 38 19 29
41 -3 7 -6 3 -6 -9z"/>
<path d="M16527 6913 c-14 -14 -6 -40 21 -66 l29 -27 179 2 179 3 0 45 0 45
-122 3 -123 3 0 -27 c0 -25 -2 -26 -37 -20 -21 3 -44 6 -50 6 -25 0 -12 29 15
33 15 2 2 5 -29 6 -31 0 -59 -2 -62 -6z"/>
<path d="M16984 6906 c-3 -8 -4 -29 -1 -48 3 -30 4 -29 5 9 l2 42 53 4 52 3
-53 2 c-37 1 -54 -2 -58 -12z"/>
<path d="M16372 6890 c0 -14 2 -19 5 -12 2 6 2 18 0 25 -3 6 -5 1 -5 -13z"/>
<path d="M16422 6806 c7 -8 15 -12 17 -11 5 6 -10 25 -20 25 -5 0 -4 -6 3 -14z"/>
<path d="M16598 6653 c6 -2 18 -2 25 0 6 3 1 5 -13 5 -14 0 -19 -2 -12 -5z"/>
<path d="M8327 19144 c-4 -4 -7 -20 -7 -36 0 -35 23 -34 28 1 4 25 -10 46 -21
35z"/>
</g>
</svg>
